<mxfile host="app.diagrams.net" modified="2023-02-16T10:04:41.074Z" agent="5.0 (X11; Linux x86_64) AppleWebKit/537.36 (KHTML, like Gecko) Chrome/109.0.0.0 Safari/537.36" etag="3AtVu7SAv2Yms1DmOg1U" version="20.8.20" type="github">
  <diagram name="Page-1" id="2c0d36ab-eaac-3732-788b-9136903baeff">
    <mxGraphModel dx="1667" dy="973" grid="1" gridSize="10" guides="1" tooltips="1" connect="1" arrows="1" fold="1" page="1" pageScale="1.5" pageWidth="1169" pageHeight="827" background="none" math="0" shadow="0">
      <root>
        <mxCell id="0" />
        <mxCell id="1" parent="0" />
        <mxCell id="gzAtO4dSIXE9040PoxY--157" value="" style="edgeStyle=orthogonalEdgeStyle;rounded=0;orthogonalLoop=1;jettySize=auto;html=1;" edge="1" parent="1" source="gzAtO4dSIXE9040PoxY--155" target="gzAtO4dSIXE9040PoxY--156">
          <mxGeometry relative="1" as="geometry" />
        </mxCell>
        <mxCell id="gzAtO4dSIXE9040PoxY--162" value="" style="edgeStyle=orthogonalEdgeStyle;rounded=0;orthogonalLoop=1;jettySize=auto;html=1;exitX=0.122;exitY=1.033;exitDx=0;exitDy=0;exitPerimeter=0;" edge="1" parent="1" source="gzAtO4dSIXE9040PoxY--155" target="gzAtO4dSIXE9040PoxY--161">
          <mxGeometry relative="1" as="geometry">
            <Array as="points">
              <mxPoint x="765" y="250" />
              <mxPoint x="640" y="250" />
            </Array>
          </mxGeometry>
        </mxCell>
        <mxCell id="gzAtO4dSIXE9040PoxY--171" value="" style="edgeStyle=orthogonalEdgeStyle;rounded=0;orthogonalLoop=1;jettySize=auto;html=1;" edge="1" parent="1" source="gzAtO4dSIXE9040PoxY--155" target="gzAtO4dSIXE9040PoxY--170">
          <mxGeometry relative="1" as="geometry">
            <Array as="points">
              <mxPoint x="930" y="250" />
            </Array>
          </mxGeometry>
        </mxCell>
        <mxCell id="gzAtO4dSIXE9040PoxY--155" value="Next.js" style="rounded=1;whiteSpace=wrap;html=1;" vertex="1" parent="1">
          <mxGeometry x="750" y="190" width="120" height="60" as="geometry" />
        </mxCell>
        <mxCell id="gzAtO4dSIXE9040PoxY--156" value="Redux" style="whiteSpace=wrap;html=1;rounded=1;" vertex="1" parent="1">
          <mxGeometry x="580" y="50" width="120" height="60" as="geometry" />
        </mxCell>
        <mxCell id="gzAtO4dSIXE9040PoxY--159" value="&lt;h1&gt;State management.&lt;/h1&gt;&lt;div&gt;Redux is the best choice for storing state in React/Next applications, his advantages are: cleaner code, one place where all the state persist, hooks to handle state&amp;nbsp;&lt;/div&gt;" style="text;html=1;strokeColor=none;fillColor=none;spacing=5;spacingTop=-20;whiteSpace=wrap;overflow=hidden;rounded=0;" vertex="1" parent="1">
          <mxGeometry x="340" y="51" width="230" height="129" as="geometry" />
        </mxCell>
        <mxCell id="gzAtO4dSIXE9040PoxY--160" value="&lt;h1&gt;Framework&lt;/h1&gt;&lt;p&gt;Advantages: Server side rendering, better SEO, built in navigation, easy folder structure pattern, cleaner code&lt;/p&gt;" style="text;html=1;strokeColor=none;fillColor=none;spacing=5;spacingTop=-20;whiteSpace=wrap;overflow=hidden;rounded=0;" vertex="1" parent="1">
          <mxGeometry x="900" y="120" width="190" height="120" as="geometry" />
        </mxCell>
        <mxCell id="gzAtO4dSIXE9040PoxY--167" value="" style="edgeStyle=orthogonalEdgeStyle;rounded=0;orthogonalLoop=1;jettySize=auto;html=1;entryX=0.5;entryY=0;entryDx=0;entryDy=0;" edge="1" parent="1" source="gzAtO4dSIXE9040PoxY--161" target="gzAtO4dSIXE9040PoxY--165">
          <mxGeometry relative="1" as="geometry">
            <mxPoint x="640" y="450" as="targetPoint" />
          </mxGeometry>
        </mxCell>
        <mxCell id="gzAtO4dSIXE9040PoxY--161" value="Packages&lt;br&gt;" style="whiteSpace=wrap;html=1;rounded=1;" vertex="1" parent="1">
          <mxGeometry x="580" y="310" width="120" height="60" as="geometry" />
        </mxCell>
        <mxCell id="gzAtO4dSIXE9040PoxY--165" value="" style="swimlane;whiteSpace=wrap;html=1;" vertex="1" parent="1">
          <mxGeometry x="540" y="410" width="200" height="120" as="geometry" />
        </mxCell>
        <mxCell id="gzAtO4dSIXE9040PoxY--169" value="&lt;br&gt;&lt;ol&gt;&lt;li&gt;&lt;span style=&quot;background-color: initial;&quot;&gt;&amp;nbsp;axios - handling fetching data&amp;nbsp;&lt;/span&gt;&lt;/li&gt;&lt;li&gt;&lt;span style=&quot;background-color: initial;&quot;&gt;sass - styles&lt;/span&gt;&lt;/li&gt;&lt;li&gt;&lt;span style=&quot;background-color: initial;&quot;&gt;typescript - types&lt;/span&gt;&lt;/li&gt;&lt;/ol&gt;" style="text;html=1;strokeColor=none;fillColor=none;spacing=5;spacingTop=-20;whiteSpace=wrap;overflow=hidden;rounded=0;" vertex="1" parent="gzAtO4dSIXE9040PoxY--165">
          <mxGeometry y="30" width="190" height="120" as="geometry" />
        </mxCell>
        <mxCell id="gzAtO4dSIXE9040PoxY--175" value="" style="edgeStyle=orthogonalEdgeStyle;rounded=0;orthogonalLoop=1;jettySize=auto;html=1;" edge="1" parent="1" source="gzAtO4dSIXE9040PoxY--170" target="gzAtO4dSIXE9040PoxY--172">
          <mxGeometry relative="1" as="geometry">
            <Array as="points" />
          </mxGeometry>
        </mxCell>
        <mxCell id="gzAtO4dSIXE9040PoxY--170" value="Libraries" style="whiteSpace=wrap;html=1;rounded=1;" vertex="1" parent="1">
          <mxGeometry x="870" y="300" width="120" height="60" as="geometry" />
        </mxCell>
        <mxCell id="gzAtO4dSIXE9040PoxY--172" value="" style="swimlane;whiteSpace=wrap;html=1;" vertex="1" parent="1">
          <mxGeometry x="830" y="430" width="200" height="70" as="geometry" />
        </mxCell>
        <mxCell id="gzAtO4dSIXE9040PoxY--173" value="&lt;ol&gt;&lt;li&gt;Ant Design - UI&lt;/li&gt;&lt;/ol&gt;" style="text;html=1;strokeColor=none;fillColor=none;spacing=5;spacingTop=-20;whiteSpace=wrap;overflow=hidden;rounded=0;" vertex="1" parent="gzAtO4dSIXE9040PoxY--172">
          <mxGeometry y="30" width="170" height="120" as="geometry" />
        </mxCell>
      </root>
    </mxGraphModel>
  </diagram>
</mxfile>
